HIERARCHY
ROOT Hip
{
    OFFSET 0.0 0.0 0.0
    CHANNELS 6 Xposition Yposition Zposition Zrotation Xrotation Yrotation
    JOINT RightHip
    {
        OFFSET -126.00988230396769 0.0 0.0
        CHANNELS 3 Zrotation Xrotation Yrotation
        JOINT RightKnee
        {
            OFFSET 0.0 0.0 -438.48094024322006
            CHANNELS 3 Zrotation Xrotation Yrotation
            JOINT RightAnkle
            {
                OFFSET 0.0 0.0 -414.96805767346086
                CHANNELS 3 Zrotation Xrotation Yrotation
                End Site
                {
                    OFFSET 0.0 -165.98722306938436 0.0
                }
            }
        }
    }
    JOINT LeftHip
    {
        OFFSET 126.00988230396769 0.0 0.0
        CHANNELS 3 Zrotation Xrotation Yrotation
        JOINT LeftKnee
        {
            OFFSET 0.0 0.0 -438.48094024322006
            CHANNELS 3 Zrotation Xrotation Yrotation
            JOINT LeftAnkle
            {
                OFFSET 0.0 0.0 -414.96805767346086
                CHANNELS 3 Zrotation Xrotation Yrotation
                End Site
                {
                    OFFSET 0.0 -165.98722306938436 0.0
                }
            }
        }
    }
    JOINT Spine
    {
        OFFSET 0.0 0.0 235.6118506488968
        CHANNELS 3 Zrotation Xrotation Yrotation
        JOINT Thorax
        {
            OFFSET 0.0 0.0 250.3492684833863
            CHANNELS 3 Zrotation Xrotation Yrotation
            JOINT Neck
            {
                OFFSET 0.0 0.0 96.69944494068992
                CHANNELS 3 Zrotation Xrotation Yrotation
                End Site
                {
                    OFFSET 0.0 0.0 38.67977797627597
                }
            }
            JOINT LeftShoulder
            {
                OFFSET 139.58382899556432 0.0 0.0
                CHANNELS 3 Zrotation Xrotation Yrotation
                JOINT LeftElbow
                {
                    OFFSET 260.8054026632454 0.0 0.0
                    CHANNELS 3 Zrotation Xrotation Yrotation
                    JOINT LeftWrist
                    {
                        OFFSET 215.78538319892357 0.0 0.0
                        CHANNELS 3 Zrotation Xrotation Yrotation
                        End Site
                        {
                            OFFSET 86.31415327956944 0.0 0.0
                        }
                    }
                }
            }
            JOINT RightShoulder
            {
                OFFSET -139.58382899556432 0.0 0.0
                CHANNELS 3 Zrotation Xrotation Yrotation
                JOINT RightElbow
                {
                    OFFSET -260.8054026632454 0.0 0.0
                    CHANNELS 3 Zrotation Xrotation Yrotation
                    JOINT RightWrist
                    {
                        OFFSET -215.78538319892357 0.0 0.0
                        CHANNELS 3 Zrotation Xrotation Yrotation
                        End Site
                        {
                            OFFSET -86.31415327956944 0.0 0.0
                        }
                    }
                }
            }
        }
    }
}
MOTION
Frames: 11
Frame Time: 0.03333333333333333
0.0 0.0 -12.074235487052212 -11.252582340724803 52.872317995332054 -176.21352425101506 43.32970037447272 -74.75623305100594 36.4969159658177 -10.799210681077136 53.61473279870864 9.914113471879391 -3.975693351829396e-16 0.0 0.0 16.87111739364131 -57.164227029660545 9.799753127876496 -11.490785991398978 48.360824060778654 28.5236934705653 -1.5902773407317584e-15 -1.9310840053969444e-32 1.3914926731402886e-15 -1.0523449862651575 5.605219772823575 -0.8534908781515655 -7.034494602804067 1.267386437215807e-14 1.1773158288632567e-15 15.22330869427088 -17.25060238581411 0.1618609944633342 -24.449733754880977 -8.715115652118488 43.55799591563689 -51.36059618959993 0.0 -0.0 -1.1927080055488186e-15 -3.1805546814635164e-15 -3.310429723537619e-32 -25.331424950292277 -32.35031976299071 -56.496730183195204 67.11505215948696 0.0 0.0 -1.5902773407317584e-15 0.0 0.0
0.0 0.0 -12.074235487052212 -11.327426143955956 53.393513220575436 -176.82674785138013 43.11079315330596 -74.06459147070093 36.66034388454724 -9.786931356578032 51.963599775977364 8.757546281831429 0.0 0.0 0.0 17.03747043344894 -56.29715517125783 10.049867702798114 -11.8995050569386 48.98204433028065 29.4760675235951 0.0 0.0 -1.987846675914698e-16 -1.2023197810642845 6.133313881186747 -0.42275861103036516 -6.536692856974504 6.30542997868814e-15 1.1565079403489066e-15 13.901749542479484 -17.34148171788196 0.4765741601549036 -23.619000529587087 -9.428391810858495 43.62292090040906 -53.250834739307756 1.1373097598290313e-14 5.7015349098497166e-15 -3.1805546814635168e-15 0.0 0.0 -26.58976089719181 -33.512318989864106 -56.67304984807582 68.08927219534169 7.096584465538729e-17 1.1467433405606757e-14 0.0 0.0 0.0
0.0 0.0 -12.074235487052212 -14.375543089498665 53.83232605481268 -175.17473209166633 43.654736066569725 -71.91835536851575 38.762770105364105 -6.845714425447009 46.98833746075763 7.303733525792551 0.0 0.0 0.0 17.830905978634732 -53.61159681070539 11.970706135815151 -11.820182422546095 49.84260174614199 28.702980286909483 1.5902773407317584e-15 8.276074308844047e-33 5.963540027744094e-16 -1.8401243952296167 8.10390913270617 -0.21206793654650283 -6.6974648112462765 1.2561155841780395e-14 3.1244876016683237e-15 14.386423273207123 -18.73853217617004 2.280428833947217 -22.394307880675562 -11.44140264888166 40.50655559948918 -56.39849293341865 -1.908576240950946e-15 1.702114129851705e-14 -6.410805529824901e-15 6.3611093629270335e-15 3.5587119528029404e-31 -29.605630993827095 -35.83800840733311 -56.44574161790067 66.23094584882296 1.0336359675317395e-14 -1.90835680618256e-14 -1.987846675914698e-16 0.0 0.0
0.0 0.0 -12.074235487052212 -14.280063461638195 54.7867025222028 -175.1919726346654 37.79342877666212 -70.50884187793221 33.398675028680266 -6.1761036105357086 45.44596879352055 5.661169472780344 3.975693351829396e-16 0.0 0.0 15.95891803228464 -51.69322433831769 9.967873863938372 -12.013609797694672 49.581751929880134 29.21147069766071 0.0 0.0 8.945310041616142e-16 -1.7850771562226109 8.16768819781146 -0.533659683032219 -6.392896966342937 0.0 0.0 13.197523056562664 -18.531926731830414 2.3589671942911936 -20.568887184264135 -10.759674467509507 40.794032588845056 -60.136439811747735 3.0424037648252855e-15 2.0136951871739086e-14 3.0811623476677818e-15 0.0 0.0 -30.290326120159456 -37.333631909543044 -55.5982273209329 68.98982219839446 1.0485353606070501e-14 -7.20501277334997e-15 1.5902773407317584e-15 0.0 0.0
0.0 0.0 -12.074235487052212 -14.293442061376796 55.541582872404874 -175.39302710813845 36.264814507828994 -69.84703147975829 32.050730305531104 -6.104205694537124 45.529298062031174 4.763178729611515 -1.5902773407317584e-15 0.0 0.0 14.934115467124547 -49.848614135282034 8.968955660457175 -12.102712801713855 49.18652744608459 29.42236423872711 0.0 0.0 -1.8884543421189626e-15 -1.7982096025329752 8.219713516695197 -0.5666502779133333 -6.306969085954638 6.395218374286798e-15 -4.44004253823902e-16 12.453502255534204 -18.40774577332932 2.3276442566164706 -18.71358488185276 -11.128832335662937 39.96567751094172 -63.774673260641976 8.761404932654067e-15 -2.0408841859108324e-15 7.951386703658794e-16 -4.4139062980501586e-32 -6.361109362927035e-15 -31.125235542621404 -38.46469214852317 -55.502082628253945 69.28995199339246 -1.1649700069604543e-15 9.50360158697792e-15 7.951386703658792e-16 0.0 0.0
0.0 0.0 -12.074235487052212 -15.936172202395982 56.88063844974546 -174.04404402300952 34.56605098962987 -68.78153733441002 31.287448971442647 -5.446757772017545 46.29355632744627 2.9065283263606485 7.951386703658792e-16 5.517382872562698e-33 7.951386703658792e-16 14.307297693343488 -48.24403485620485 8.449513716989598 -12.909600196581568 50.54307916177149 29.74594789291649 0.0 0.0 -4.47265502080807e-15 -1.8027318273662467 8.122302725412958 -0.861698288127695 -6.4041675833357665 -6.3511779750084585e-15 -3.553176844535517e-16 12.20198040459937 -17.675764154306627 3.1406585699723175 -15.375715831616363 -13.12542958735603 40.411146275113836 -68.67545016674337 -1.794055008764509e-15 2.626270113165527e-15 -4.770832022195275e-15 -2.648343778830095e-31 6.3611093629270335e-15 -30.851540188841284 -38.9470705753469 -52.86805365018694 69.57531947858486 4.5365579050968004e-15 6.530252130264616e-15 1.5902773407317584e-15 0.0 0.0
0.0 0.0 -12.074235487052212 -16.00500479448195 57.89701102548516 -174.0840843461329 31.31662213024786 -67.1264806875064 28.462077998224025 -5.303436916082657 46.686485553750785 1.2335004885007341 5.963540027744094e-16 -4.138037154422024e-33 -7.951386703658792e-16 13.401562016865906 -46.542935765376775 7.964480255121818 -12.449580734105608 50.14627572373734 28.778913294990677 0.0 0.0 0.0 -1.7128168641414527 7.75703268341375 -1.0294129037168385 -5.962584662340253 1.2406522556685822e-16 -2.3821875169276686e-15 11.955759591500588 -17.455338883321627 4.089317731306589 -11.437454587794333 -15.956484336930565 40.331813370582005 -72.88721185557007 1.889349009257116e-15 -2.5585715551843858e-15 -2.3854160110976376e-15 0.0 0.0 -30.867008208738863 -40.87336384792868 -51.17353491937818 71.7040256611383 3.2268533327521686e-15 1.5326404456103163e-14 0.0 0.0 0.0
0.0 0.0 -12.074235487052212 -15.620685877602053 58.82347479314996 -174.59739400164995 29.68980591572034 -66.09331789991457 26.95987943510809 -5.572273464709901 48.00964279805374 0.3788576700156408 7.951386703658792e-16 0.0 0.0 12.942760538158577 -45.52561756721261 8.116886489572954 -11.729942567164322 49.856684033990156 27.362657423131417 0.0 0.0 -9.93923337957349e-17 -1.601409632831845 7.248906641163461 -1.2095531534255606 -5.588294082930931 -3.8761211656675544e-17 7.941933477322287e-16 12.604850747722118 -17.419846745182024 5.481236461833823 -7.344135043268732 -19.218607823066808 40.84434770685286 -75.90212311712426 -9.780017702400164e-16 1.2539914504701643e-15 1.5902773407317584e-15 0.0 0.0 -28.96578448492963 -42.07524368026468 -48.75487987758789 71.72663384550837 1.0745168865401557e-14 4.00604681913959e-15 1.5902773407317584e-15 0.0 0.0
0.0 0.0 -12.074235487052212 -14.190054761579388 59.088994507656 -175.97183412803835 27.903543460692962 -64.66702443919122 25.456590629293242 -5.769788597236702 49.46084224179162 -0.5763129968934294 -4.969616689786745e-16 0.0 0.0 12.915500164309426 -45.20651916501802 8.660993935424445 -11.895280800707601 51.717612020153354 26.166956514778153 -1.590277340731758e-15 3.034560579909484e-32 -2.1866313435061676e-15 -1.3709155578085634 6.159132039438006 -1.4852721296642224 -4.873981362312136 -1.2609283050852949e-14 -2.924216099734312e-15 12.741082502934367 -17.570911587164577 6.626822451933083 -4.316132976365728 -21.882677374208615 40.30171401171075 -77.48156745659159 -9.951924052370212e-16 1.240392718861017e-15 1.5902773407317584e-15 0.0 0.0 -26.102104480099058 -44.0234812251774 -44.88881739380123 72.5061417563808 -5.557286082131789e-15 1.3935421458317578e-14 0.0 0.0 0.0
0.0 0.0 -12.074235487052212 -12.556246024652355 59.75810028247724 -177.65985802091782 26.366203272821384 -63.470057047084 24.234508525784364 -5.826472296905264 50.65319502996417 -1.291091401628755 -1.987846675914698e-16 1.3793457181406746e-33 -7.951386703658792e-16 12.278042095295675 -43.756252360720225 8.860290622698471 -10.123976696720424 49.2899539001084 23.342940490018105 0.0 0.0 -2.981770013872047e-16 -1.2202048297308397 5.482226150526104 -1.2591524110087295 -4.259789972683144 -1.2683878008872275e-14 -1.2674121151501427e-15 12.8479878029744 -17.77101252896018 6.87207064277024 -2.2303250823716696 -21.94712488509103 39.79469720055848 -80.48411338558812 4.109392174324456e-15 -4.855574969529241e-15 0.0 0.0 0.0 -22.151397115872186 -44.00088347062571 -41.10650182408873 72.89645134066534 -3.2272831183610812e-15 6.337529809226859e-15 3.1805546814635168e-15 0.0 0.0
0.0 0.0 -12.074235487052212 -10.679752316997135 59.44901050012628 -179.39883984247615 25.439404755207487 -64.11867449277563 23.358734635264707 -5.902780134261976 52.49781975828887 -1.7273017675576863 0.0 0.0 0.0 12.107566002559956 -45.131833993768865 8.621253403454297 -10.156081188127052 50.70168230426734 22.816931216375707 0.0 0.0 2.981770013872047e-16 -0.9525649174309925 4.557212741133072 -1.3368630447039973 -3.136266725468968 -4.351901054006345e-17 1.5896817656897519e-15 12.939501695480603 -17.68376759135594 8.04794377192615 1.1834657541809037 -21.328979285115675 41.68917152488182 -82.89398517672656 -5.325584279983288e-15 -1.3189265093718633e-14 0.0 0.0 -6.3611093629270335e-15 -18.9542495860165 -44.72380170162281 -38.14127112132885 74.65557153565469 1.2281762548332383e-14 -1.536530370134107e-14 0.0 0.0 0.0
